<svg width="202" height="94" viewBox="0 0 202 94" fill="none" xmlns="http://www.w3.org/2000/svg">
<rect width="202" height="94" fill="white"/>
<path d="M59.4432 66V31.0909H72.8068C75.3295 31.0909 77.4261 31.4886 79.0966 32.2841C80.7784 33.0682 82.0341 34.142 82.8636 35.5057C83.7045 36.8693 84.125 38.4148 84.125 40.142C84.125 41.5625 83.8523 42.7784 83.3068 43.7898C82.7614 44.7898 82.0284 45.6023 81.108 46.2273C80.1875 46.8523 79.1591 47.3011 78.0227 47.5739V47.9148C79.2614 47.983 80.4489 48.3636 81.5852 49.0568C82.733 49.7386 83.6705 50.7045 84.3977 51.9545C85.125 53.2045 85.4886 54.7159 85.4886 56.4886C85.4886 58.2955 85.0511 59.9205 84.1761 61.3636C83.3011 62.7955 81.983 63.9261 80.2216 64.7557C78.4602 65.5852 76.2443 66 73.5739 66H59.4432ZM65.767 60.7159H72.5682C74.8636 60.7159 76.517 60.2784 77.5284 59.4034C78.5511 58.517 79.0625 57.3807 79.0625 55.9943C79.0625 54.9602 78.8068 54.0284 78.2955 53.1989C77.7841 52.358 77.0568 51.6989 76.1136 51.2216C75.1705 50.733 74.0455 50.4886 72.7386 50.4886H65.767V60.7159ZM65.767 45.9375H72.0227C73.1136 45.9375 74.0966 45.7386 74.9716 45.3409C75.8466 44.9318 76.5341 44.358 77.0341 43.6193C77.5455 42.8693 77.8011 41.983 77.8011 40.9602C77.8011 39.608 77.3239 38.4943 76.3693 37.6193C75.4261 36.7443 74.0227 36.3068 72.1591 36.3068H65.767V45.9375ZM90.9901 66V31.0909H104.081C106.763 31.0909 109.013 31.5568 110.831 32.4886C112.661 33.4205 114.041 34.7273 114.973 36.4091C115.916 38.0795 116.388 40.0284 116.388 42.2557C116.388 44.4943 115.911 46.4375 114.956 48.0852C114.013 49.7216 112.621 50.9886 110.78 51.8864C108.939 52.7727 106.678 53.2159 103.996 53.2159H94.6719V47.9659H103.143C104.712 47.9659 105.996 47.75 106.996 47.3182C107.996 46.875 108.734 46.233 109.212 45.392C109.7 44.5398 109.945 43.4943 109.945 42.2557C109.945 41.017 109.7 39.9602 109.212 39.0852C108.723 38.1989 107.979 37.5284 106.979 37.0739C105.979 36.608 104.689 36.375 103.109 36.375H97.3139V66H90.9901ZM109.024 50.1818L117.666 66H110.609L102.121 50.1818H109.024ZM136.067 31.0909V66H129.743V37.2443H129.538L121.374 42.4602V36.6648L130.05 31.0909H136.067Z" fill="black"/>
</svg>
