<svg width="202" height="74" viewBox="0 0 202 94" fill="none" xmlns="http://www.w3.org/2000/svg">
<rect width="202" height="94" fill="white"/>
<path d="M72.168 32.304C75.912 32.304 78.792 32.992 80.808 34.368C82.856 35.712 83.752 37.824 83.496 40.704C83.432 41.696 83.096 42.688 82.488 43.68C81.912 44.64 81.064 45.504 79.944 46.272C78.824 47.008 77.4 47.552 75.672 47.904V48C79.064 48.16 81.544 49.056 83.112 50.688C84.712 52.288 85.432 54.24 85.272 56.544C85.176 58.528 84.6 60.24 83.544 61.68C82.52 63.088 81.128 64.16 79.368 64.896C77.64 65.632 75.688 66 73.512 66H58.824L58.968 63.888C60.024 63.856 60.792 63.648 61.272 63.264C61.752 62.848 62.072 62.24 62.232 61.44C62.424 60.64 62.552 59.632 62.616 58.416L63.624 38.832C63.656 37.968 63.704 37.2 63.768 36.528C63.864 35.824 63.944 35.264 64.008 34.848C63.432 34.88 62.824 34.912 62.184 34.944C61.544 34.976 60.968 35.008 60.456 35.04L60.6 32.4C62.52 32.4 64.424 32.384 66.312 32.352C68.2 32.32 70.152 32.304 72.168 32.304ZM72.6 49.728C71.672 49.728 70.856 49.744 70.152 49.776C69.448 49.776 68.728 49.792 67.992 49.824L67.464 59.664C67.432 60.528 67.384 61.296 67.32 61.968C67.256 62.608 67.192 63.136 67.128 63.552C67.64 63.584 68.216 63.6 68.856 63.6C69.528 63.6 70.152 63.6 70.728 63.6C71.336 63.6 71.784 63.6 72.072 63.6C74.376 63.568 76.2 62.96 77.544 61.776C78.92 60.56 79.672 58.864 79.8 56.688C79.896 54.928 79.608 53.552 78.936 52.56C78.264 51.536 77.368 50.816 76.248 50.4C75.128 49.952 73.912 49.728 72.6 49.728ZM72.12 34.56C71.288 34.56 70.616 34.688 70.104 34.944C69.592 35.2 69.224 35.648 69 36.288C68.776 36.896 68.632 37.808 68.568 39.024L68.136 47.472C68.68 47.472 69.224 47.472 69.768 47.472C70.312 47.44 70.824 47.408 71.304 47.376C72.968 47.312 74.296 46.944 75.288 46.272C76.312 45.6 77.048 44.752 77.496 43.728C77.976 42.672 78.232 41.568 78.264 40.416C78.36 38.816 78.088 37.6 77.448 36.768C76.808 35.936 76.008 35.36 75.048 35.04C74.088 34.72 73.112 34.56 72.12 34.56ZM102.126 32.304C105.134 32.304 107.582 32.672 109.47 33.408C111.39 34.144 112.782 35.2 113.646 36.576C114.51 37.952 114.862 39.632 114.702 41.616C114.638 42.864 114.318 44.112 113.742 45.36C113.166 46.608 112.222 47.728 110.91 48.72C109.598 49.712 107.806 50.464 105.534 50.976C105.982 51.424 106.334 51.776 106.59 52.032C106.878 52.256 107.118 52.48 107.31 52.704C107.502 52.928 107.694 53.2 107.886 53.52C108.11 53.808 108.382 54.24 108.702 54.816L111.39 59.328C111.966 60.288 112.478 61.104 112.926 61.776C113.406 62.448 113.95 62.976 114.558 63.36C115.198 63.712 115.966 63.888 116.862 63.888L116.718 66H110.238C109.566 65.456 108.926 64.736 108.318 63.84C107.71 62.944 107.086 61.984 106.446 60.96L103.422 55.584C103.07 54.912 102.67 54.224 102.222 53.52C101.806 52.784 101.342 52.16 100.83 51.648C100.542 51.648 100.174 51.648 99.7256 51.648C99.2776 51.648 98.8616 51.648 98.4776 51.648C98.0936 51.648 97.8216 51.648 97.6616 51.648L97.2296 59.568C97.1976 60.432 97.1496 61.216 97.0856 61.92C97.0216 62.592 96.9576 63.136 96.8936 63.552C97.2776 63.52 97.6776 63.504 98.0936 63.504C98.5416 63.472 98.9736 63.44 99.3896 63.408C99.8376 63.376 100.222 63.36 100.542 63.36L100.446 66H88.6376L88.7816 63.888C89.8056 63.824 90.5576 63.6 91.0376 63.216C91.5496 62.832 91.8856 62.256 92.0456 61.488C92.2056 60.72 92.3176 59.744 92.3816 58.56L93.4376 38.592C93.4696 37.888 93.5176 37.216 93.5816 36.576C93.6456 35.904 93.7096 35.328 93.7736 34.848C93.2296 34.88 92.6216 34.912 91.9496 34.944C91.3096 34.976 90.7496 35.008 90.2696 35.04L90.4136 32.4C92.3656 32.368 94.3016 32.352 96.2216 32.352C98.1736 32.32 100.142 32.304 102.126 32.304ZM101.838 34.656C100.878 34.656 100.158 34.832 99.6776 35.184C99.1976 35.536 98.8616 36.08 98.6696 36.816C98.4776 37.52 98.3496 38.448 98.2856 39.6L97.8056 49.152C98.2536 49.184 98.6856 49.232 99.1016 49.296C99.5496 49.328 100.03 49.328 100.542 49.296C102.302 49.264 103.822 48.992 105.102 48.48C106.414 47.936 107.438 47.12 108.174 46.032C108.91 44.912 109.31 43.472 109.374 41.712C109.47 40.4 109.342 39.296 108.99 38.4C108.638 37.504 108.126 36.784 107.454 36.24C106.782 35.664 105.966 35.264 105.006 35.04C104.046 34.784 102.99 34.656 101.838 34.656ZM131 31.632L129.512 59.904C129.48 60.576 129.432 61.248 129.368 61.92C129.336 62.56 129.272 63.104 129.176 63.552C129.816 63.488 130.488 63.456 131.192 63.456C131.896 63.424 132.52 63.392 133.064 63.36L132.968 66H120.488L120.536 63.888C121.528 63.824 122.312 63.616 122.888 63.264C123.496 62.912 123.944 62.384 124.232 61.68C124.52 60.944 124.696 60 124.76 58.848L125.72 37.344L120.008 40.848L118.904 38.928L128.936 31.632H131Z" fill="black"/>
</svg>
